<?xml version="1.0" standalone="no"?>
<!DOCTYPE svg PUBLIC "-//W3C//DTD SVG 20010904//EN"
 "http://www.w3.org/TR/2001/REC-SVG-20010904/DTD/svg10.dtd">
<svg version="1.0" xmlns="http://www.w3.org/2000/svg"
 width="32.000000pt" height="32.000000pt" viewBox="0 0 32.000000 32.000000"
 preserveAspectRatio="xMidYMid meet">

<g transform="translate(0.000000,32.000000) scale(0.100000,-0.100000)"
fill="#000000" stroke="none">
<path d="M100 273 c-95 -49 -87 -193 13 -232 105 -40 206 61 166 166 -27 70
-111 101 -179 66z m110 -18 c32 -17 60 -61 60 -95 0 -53 -57 -110 -110 -110
-53 0 -110 57 -110 110 0 33 28 78 58 94 35 20 66 20 102 1z"/>
<path d="M100 184 c0 -6 14 -23 30 -39 l30 -29 30 29 c17 16 30 33 30 39 0 5
-13 -3 -30 -19 l-30 -29 -30 29 c-16 16 -30 24 -30 19z"/>
</g>
</svg>
